<?xml version="1.0" encoding="UTF-8" standalone="no"?>
<!-- Created with Inkscape (http://www.inkscape.org/) -->

<svg
   xmlns:dc="http://purl.org/dc/elements/1.1/"
   xmlns:cc="http://creativecommons.org/ns#"
   xmlns:rdf="http://www.w3.org/1999/02/22-rdf-syntax-ns#"
   xmlns:svg="http://www.w3.org/2000/svg"
   xmlns="http://www.w3.org/2000/svg"
   xmlns:sodipodi="http://sodipodi.sourceforge.net/DTD/sodipodi-0.dtd"
   xmlns:inkscape="http://www.inkscape.org/namespaces/inkscape"
   version="1.1"
   id="svg3713"
   width="500"
   height="500"
   viewBox="0 0 500 499.99999"
   sodipodi:docname="LogoOPLB.svg"
   inkscape:version="0.92.4 (5da689c313, 2019-01-14)"
   inkscape:export-filename="C:\Users\OPLB-RENNES\Documents\LogoOPLB.png"
   inkscape:export-xdpi="96"
   inkscape:export-ydpi="96">
  <metadata
     id="metadata3719">
    <rdf:RDF>
      <cc:Work
         rdf:about="">
        <dc:format>image/svg+xml</dc:format>
        <dc:type
           rdf:resource="http://purl.org/dc/dcmitype/StillImage" />
        <dc:title />
      </cc:Work>
    </rdf:RDF>
  </metadata>
  <defs
     id="defs3717" />
  <sodipodi:namedview
     pagecolor="#ffffff"
     bordercolor="#666666"
     borderopacity="1"
     objecttolerance="10"
     gridtolerance="10"
     guidetolerance="10"
     inkscape:pageopacity="0"
     inkscape:pageshadow="2"
     inkscape:window-width="1920"
     inkscape:window-height="1017"
     id="namedview3715"
     showgrid="false"
     inkscape:zoom="0.96"
     inkscape:cx="-203.52497"
     inkscape:cy="268.12141"
     inkscape:window-x="-8"
     inkscape:window-y="-8"
     inkscape:window-maximized="1"
     inkscape:current-layer="g19"
     units="px"
     width="1024mm" />
  <g
     id="g19"
     style="fill:#ffd249;fill-opacity:1" />
  <path
     style="fill:#ffffff;fill-opacity:1;stroke-width:0.40417129"
     d="M 348.28318,462.91258 C 341.29344,448.66 336.45297,443.87336 261.51295,377.1069 248.58341,365.58757 239.53164,356.98041 223.47151,340.93396 200.28878,317.77102 186.1829,302.16779 169.03458,280.71842 l -0.78722,-0.98464 -8.64522,6.61963 c -58.71046,44.95474 -81.182917,64.262 -93.810466,80.5975 -4.97597,6.43712 -7.604454,11.35868 -11.422795,21.38798 -0.83262,2.18697 -1.663149,3.82387 -1.84562,3.63754 -0.594863,-0.60742 -6.75707,-14.81474 -9.015259,-20.78515 -1.211705,-3.20363 -2.968279,-8.32659 -3.903491,-11.38438 l -1.700388,-5.55962 3.100704,-4.65601 c 4.061482,-6.09874 9.710742,-12.97293 17.475778,-21.26498 35.608694,-38.02546 107.879897,-92.92384 122.294477,-92.89688 2.39422,0.005 5.64193,1.33546 7.00986,2.87281 0.47122,0.52958 2.27092,3.32725 3.99933,6.21707 1.72842,2.88983 4.40203,7.03385 5.94138,9.20889 2.57687,3.64102 10.57305,13.61193 14.01985,17.48215 0.79959,0.89783 2.54507,2.89544 3.87883,4.43918 9.31145,10.77721 30.15997,32.62389 41.03534,43.00002 10.43109,9.95224 18.0604,16.84347 33.11628,29.91256 34.42258,29.88014 40.75768,35.58267 53.91531,48.53167 22.12095,21.7702 31.15147,33.48273 33.79996,43.83821 1.41653,5.53864 0.81832,10.19259 -1.81244,14.10036 -3.60839,5.36 -15.28588,12.11079 -22.48047,12.99604 l -2.2693,0.27921 z m 51.84537,-28.70647 c 0,-0.21502 0.48618,-2.42394 1.08039,-4.90866 1.42139,-5.9435 1.48416,-11.54997 0.18183,-16.23872 -1.90635,-6.86343 -7.79411,-17.04628 -15.11698,-26.14482 -9.72632,-12.08481 -30.94023,-33.02573 -59.09817,-58.33774 -51.70508,-46.47912 -52.92795,-47.61295 -72.76238,-67.46329 -29.31588,-29.33941 -50.54139,-54.51734 -64.58633,-76.61302 -1.76623,-2.77868 -3.34809,-5.20467 -3.51525,-5.39107 -0.16715,-0.18645 -4.09812,2.43969 -8.73547,5.83587 -4.63735,3.39615 -11.70534,8.56592 -15.70664,11.48835 -4.0013,2.92245 -12.7314,9.30836 -19.40022,14.1909 -6.66883,4.88255 -15.67176,11.45858 -20.00647,14.61335 -36.534512,26.58938 -71.058747,52.08972 -76.229885,56.30501 -1.580039,1.28798 -6.036028,5.81737 -9.902197,10.06532 l -7.029404,7.7236 -0.126999,-6.18697 c -0.147268,-7.1746 0.508051,-19.90152 1.369534,-26.59758 0.787774,-6.12316 2.093648,-13.02144 2.519592,-13.30973 0.186892,-0.1265 2.87254,-2.41921 5.968096,-5.09487 16.576714,-14.32827 28.160579,-22.76462 62.818523,-45.74976 7.89145,-5.23361 14.42546,-9.58326 14.52007,-9.66592 0.0946,-0.0827 -0.77032,-3.10412 -1.92202,-6.71446 -2.55056,-7.99539 -3.74427,-12.78086 -5.16601,-20.71018 -0.59788,-3.33441 -1.12224,-6.10998 -1.16526,-6.16798 -0.084,-0.11313 -3.12263,1.6651 -17.98774,10.5264 -13.397418,7.98643 -21.296884,12.94651 -33.142051,20.80994 -5.668502,3.76307 -10.376032,6.78441 -10.461175,6.71409 -0.270907,-0.22367 5.566737,-13.41372 9.459695,-21.37399 5.774364,-11.80739 12.842258,-23.64108 15.017995,-25.14447 1.45018,-1.0021 12.782455,-7.36692 21.954727,-12.33102 13.671589,-7.39917 20.138159,-10.78552 34.556639,-18.09634 14.53278,-7.36876 26.64528,-13.79306 34.32661,-18.2063 3.58178,-2.057882 4.10549,-2.499882 4.36862,-3.686742 0.16442,-0.741681 0.7662,-3.894827 1.33731,-7.006948 3.39168,-18.482308 11.63682,-31.279379 27.11026,-42.077057 10.11043,-7.05526 17.91711,-10.688314 28.44371,-13.237142 6.98315,-1.690853 16.60922,-3.589242 16.87121,-3.327253 0.10258,0.10258 -0.51404,0.312299 -1.37036,0.465923 -2.40069,0.430729 -10.23421,2.849048 -13.7405,4.241855 -9.27038,3.682608 -16.73414,8.430171 -22.79772,14.501271 -7.07563,7.084351 -11.02813,14.076433 -13.4944,23.871811 -0.99007,3.932304 -2.0646,10.895806 -1.79311,11.620288 0.0833,0.222417 3.47503,-1.657469 7.53707,-4.177558 15.79369,-9.798404 19.83637,-13.17049 21.14062,-17.633707 0.21342,-0.730341 0.66298,-3.146678 0.99899,-5.369626 1.39522,-9.23006 7.04554,-16.454337 18.48003,-23.627845 2.429,-1.52385 9.08948,-4.462055 10.11486,-4.462055 0.21255,0 -0.9555,0.878298 -2.59565,1.951787 -5.86682,3.839822 -9.67005,8.157989 -11.32013,12.85276 -1.02478,2.915655 -1.72108,8.148263 -1.25247,9.411944 0.34806,0.938602 0.52114,0.817636 4.44742,-3.108649 7.78299,-7.78296 11.33524,-13.21474 12.18716,-18.635283 0.22298,-1.418767 0.48921,-2.663413 0.59164,-2.765823 0.38857,-0.388578 2.66248,4.206649 2.91504,5.890835 1.08009,7.202578 -3.93178,16.74825 -14.68593,27.971075 l -4.14166,4.322172 0.76892,2.172542 c 3.2504,9.183946 8.28779,18.232654 12.34701,22.179017 l 1.8708,1.818777 0.68676,-0.871194 c 7.27371,-9.226993 11.99675,-16.33939 15.25656,-22.974914 5.41668,-11.02588 5.91548,-18.260584 1.83533,-26.620984 -0.88247,-1.808229 -2.52051,-4.549925 -3.64008,-6.092639 -1.11959,-1.542725 -1.96733,-2.873259 -1.88387,-2.956719 0.0834,-0.08351 1.30687,0.430686 2.71871,1.142546 17.45167,8.799342 21.39856,24.639626 11.44607,45.937311 -3.11623,6.668577 -9.14535,16.298484 -14.87156,23.753394 l -2.17316,2.8292 3.67864,4.24137 c 5.18802,5.98162 19.15585,19.9394 23.48303,23.46611 2.00065,1.63059 6.63852,5.81234 10.30637,9.29279 3.66785,3.48048 10.76105,9.77085 15.76268,13.97859 35.68799,30.02349 64.27681,54.30154 82.24885,69.84686 6.44656,5.57606 14.8933,12.86364 18.7706,16.19462 22.40886,19.25153 42.51488,38.4531 49.72049,47.48387 7.7868,9.75911 12.31838,18.18512 13.98,25.99444 0.77351,3.63515 0.74963,11.22808 -0.0476,15.14704 -1.3111,6.44464 -5.28573,16.66532 -11.28819,29.02718 -2.47171,5.09037 -3.39305,6.55432 -5.53262,8.79073 -2.43012,2.54009 -2.66527,2.68321 -4.40885,2.68321 -1.44217,0 -2.04782,-0.21931 -2.79133,-1.01071 -1.15141,-1.22561 -1.19728,-2.40821 -0.28215,-7.27481 1.97883,-10.52327 -0.28025,-22.25645 -6.75285,-35.0728 -7.07887,-14.01683 -18.29802,-28.09581 -38.4127,-48.20451 -17.10139,-17.09628 -32.94214,-30.96748 -63.47621,-55.58401 -4.00129,-3.22587 -11.0945,-8.94262 -15.76267,-12.70396 -12.44793,-10.02971 -21.56817,-17.62079 -31.04886,-25.84288 -4.62839,-4.01395 -8.91817,-7.70767 -9.53284,-8.20823 l -1.11758,-0.91012 -3.18183,3.53723 c -1.75001,1.94548 -7.69787,8.00809 -13.21745,13.47245 l -10.03564,9.93517 8.2066,8.05045 c 13.04317,12.7949 25.30142,23.67474 60.75581,53.92385 25.22683,21.52312 34.06231,29.48199 48.22916,43.44405 18.01444,17.75402 30.58314,32.20421 42.5408,48.9091 7.48003,10.44964 11.82269,19.67586 13.50696,28.69615 0.903,4.83631 0.62334,12.46288 -0.61511,16.77311 -2.71539,9.4507 -10.3931,18.45787 -19.81612,23.24741 -2.52736,1.28463 -9.29594,3.13981 -9.29594,2.54794 z M 241.34231,186.05184 c 6.43481,-5.7508 11.40218,-10.58635 23.48876,-22.86531 l 3.67342,-3.73192 -2.1898,-2.33675 c -1.20439,-1.28519 -3.73575,-3.97664 -5.62526,-5.981 -5.17024,-5.4845 -11.07911,-12.2829 -15.96723,-18.37094 -2.40951,-3.00096 -4.41805,-5.45631 -4.46342,-5.45631 -0.0454,0 -2.23936,2.00066 -4.87555,4.44589 -4.49541,4.1698 -8.63523,7.96997 -9.68649,8.89176 -0.25351,0.22231 -1.13138,1.00729 -1.95079,1.74441 -0.81943,0.73714 -4.3461,3.72081 -7.83704,6.63036 -3.49093,2.90958 -6.39621,5.40919 -6.45619,5.55464 -0.14127,0.34278 6.31537,9.81191 10.75781,15.77719 5.82926,7.82747 15.62687,19.8044 16.2008,19.8044 0.18486,0 2.4038,-1.84788 4.93098,-4.10642 z m -86.54576,-15.70343 c 12.66653,-8.58133 20.92733,-14.30529 22.30612,-15.45607 l 1.08713,-0.90741 -2.45084,-5.6584 c -4.01733,-9.27513 -7.45833,-20.52589 -9.00057,-29.42856 l -0.26692,-1.54074 -1.29054,0.84661 c -0.70978,0.46569 -8.17577,4.97842 -16.59106,10.02839 l -15.30053,9.18167 0.25478,2.22294 c 0.80333,7.00915 3.42393,18.21168 6.14558,26.27113 2.96634,8.78398 4.1992,11.76532 4.73059,11.43955 0.26073,-0.1598 4.93004,-3.30943 10.37626,-6.99911 z m 49.8446,-35.46059 c 8.28599,-6.4968 18.20512,-14.90074 23.04574,-19.52544 l 2.77508,-2.65127 -1.66931,-2.72731 c -4.47341,-7.30872 -8.31239,-15.614233 -10.5349,-22.791915 -0.87785,-2.835061 -1.43341,-4.055538 -1.75659,-3.8589 -0.25996,0.158184 -2.38238,1.76251 -4.71647,3.565115 -4.61325,3.562802 -13.20142,9.755634 -19.60231,14.13491 -2.22293,1.5209 -4.16987,2.87266 -4.32651,3.00393 -0.72184,0.60497 2.73173,13.15978 5.60518,20.37663 1.84411,4.63156 6.19497,14.01076 6.49937,14.01076 0.0936,0 2.19998,-1.59143 4.68072,-3.53651 z"
     id="path3723"
     inkscape:connector-curvature="0"
     sodipodi:nodetypes="cssscssscscccsccsccscsscccccscssssscsssssscsscsscsscsscsssssssssccssscsccsscccsscsscsscssscccsscsssssccccccscssssssccsscsssscccssscsssssscssssssscsccssccscssscscccccsss" />
</svg>
